<svg width="320" height="320" viewBox="0 0 320 320" fill="none" xmlns="http://www.w3.org/2000/svg">
<g clip-path="url(#clip0_928_134)">
<rect width="320" height="320" rx="20" fill="#0A052E"/>
<g filter="url(#filter0_d_928_134)">
<path d="M141.282 195.042L138.718 178.908C138.718 178.908 147.948 177.395 159.743 177.395C172.051 177.395 181.282 178.908 181.282 178.908L178.718 195.042C178.718 195.042 167.164 194.023 159.743 194.034C152.522 194.044 141.282 195.042 141.282 195.042Z" fill="#809CFF"/>
<path d="M134.616 179.412L123.846 181.428L126.41 196.554L137.18 195.042L134.616 179.412Z" fill="#809CFF"/>
<path d="M185.385 179.412L195.129 181.933L193.59 196.554L182.821 195.042L185.385 179.412Z" fill="#809CFF"/>
<path d="M144.359 217.227L141.795 198.571C141.795 198.571 152.722 197.574 159.743 197.563C166.964 197.552 178.205 198.571 178.205 198.571L175.128 217.227C175.128 217.227 165.781 216.723 159.743 216.723C153.705 216.723 144.359 217.227 144.359 217.227Z" fill="#809CFF"/>
<path d="M137.692 199.075L126.923 200.588L130.512 219.748L140.256 217.731L137.692 199.075Z" fill="#809CFF"/>
<path d="M182.308 199.075L193.077 200.588L189.487 219.748L179.744 217.731L182.308 199.075Z" fill="#809CFF"/>
<path d="M172.051 239.916H146.923L149.487 250H169.487L172.051 239.916Z" fill="#809CFF"/>
<path d="M133.59 235.882L131.026 223.782C152.77 218.134 178.035 221.429 187.949 223.782L184.872 235.882H133.59Z" fill="#809CFF"/>
<path d="M210 209.664L198.205 199.075L190 236.386L209.487 250L210 209.664Z" fill="#809CFF"/>
<path d="M110 209.664L121.795 199.075L130 236.386L110.513 250L110 209.664Z" fill="#809CFF"/>
<path fill-rule="evenodd" clip-rule="evenodd" d="M159.773 70V76.5546C159.773 76.5546 150.159 85.7597 141.824 98.2353C136.516 106.18 132.336 115.912 129.516 123.95C122.551 143.807 123.363 177.395 123.363 177.395C123.363 177.395 141.282 172.944 159.773 172.857C179.231 172.766 195.67 177.395 195.67 177.395C195.67 177.395 197.575 143.891 191.055 123.95C188.345 115.663 184.578 106.377 179.26 98.2353C171.354 86.1301 161.824 76.5546 161.824 76.5546V70H159.773ZM159.773 142.605C168.836 142.605 176.183 135.382 176.183 126.471C176.183 117.56 168.836 110.336 159.773 110.336C150.71 110.336 143.362 117.56 143.362 126.471C143.362 135.382 150.71 142.605 159.773 142.605Z" fill="#809CFF"/>
<ellipse cx="159.833" cy="126.522" rx="12.8205" ry="12.605" fill="#809CFF"/>
</g>
</g>
<defs>
<filter id="filter0_d_928_134" x="-15.0002" y="-55" width="350" height="430" filterUnits="userSpaceOnUse" color-interpolation-filters="sRGB">
<feFlood flood-opacity="0" result="BackgroundImageFix"/>
<feColorMatrix in="SourceAlpha" type="matrix" values="0 0 0 0 0 0 0 0 0 0 0 0 0 0 0 0 0 0 127 0" result="hardAlpha"/>
<feOffset/>
<feGaussianBlur stdDeviation="62.5"/>
<feColorMatrix type="matrix" values="0 0 0 0 1 0 0 0 0 1 0 0 0 0 1 0 0 0 0.54 0"/>
<feBlend mode="normal" in2="BackgroundImageFix" result="effect1_dropShadow_928_134"/>
<feBlend mode="normal" in="SourceGraphic" in2="effect1_dropShadow_928_134" result="shape"/>
</filter>
<clipPath id="clip0_928_134">
<rect width="320" height="320" rx="20" fill="white"/>
</clipPath>
</defs>
</svg>
